HIERARCHY
ROOT Hips
{
	OFFSET 0.000000 88.474243 0.000000
	CHANNELS 6 Xposition Yposition Zposition Zrotation Yrotation Xrotation 
	JOINT Hips_Spine
	{
		OFFSET 0.000000 0.000000 0.000000
		CHANNELS 3 Zrotation Yrotation Xrotation
		JOINT Spine
		{
			OFFSET 0.005100 8.711998 -0.691000
			CHANNELS 3 Zrotation Yrotation Xrotation
			JOINT Spine1
			{
				OFFSET -0.009200 8.660301 -1.275000
				CHANNELS 3 Zrotation Yrotation Xrotation
				JOINT Spine2
				{
					OFFSET 0.006300 9.852501 -1.857000
					CHANNELS 3 Zrotation Yrotation Xrotation
					JOINT Spine2_Neck
					{
						OFFSET 0.000000 0.000000 0.000000
						CHANNELS 3 Zrotation Yrotation Xrotation
						JOINT Neck
						{
							OFFSET 0.016300 11.420799 -0.263300
							CHANNELS 3 Zrotation Yrotation Xrotation
							End Site #name: Head
							{
								OFFSET -0.019200 9.262405 2.362500
							}
						}
					}
					JOINT Spine2_LeftShoulder
					{
						OFFSET 0.000000 0.000000 0.000000
						CHANNELS 3 Zrotation Yrotation Xrotation
						JOINT LeftShoulder
						{
							OFFSET 5.616900 6.732201 -0.345700
							CHANNELS 3 Zrotation Yrotation Xrotation
							JOINT LeftArm
							{
								OFFSET 10.664888 -0.183372 -2.440700
								CHANNELS 3 Zrotation Yrotation Xrotation
								JOINT LeftForeArm
								{
									OFFSET 27.459126 0.000000 0.000000
									CHANNELS 3 Zrotation Yrotation Xrotation
									End Site #name: LeftHand
									{
										OFFSET 21.306858 0.000000 0.000000
									}
								}
							}
						}
					}
					JOINT Spine2_RightShoulder
					{
						OFFSET 0.000000 0.000000 0.000000
						CHANNELS 3 Zrotation Yrotation Xrotation
						JOINT RightShoulder
						{
							OFFSET -5.580300 6.737503 -0.344400
							CHANNELS 3 Zrotation Yrotation Xrotation
							JOINT RightArm
							{
								OFFSET -10.679335 -0.188484 -2.383900
								CHANNELS 3 Zrotation Yrotation Xrotation
								JOINT RightForeArm
								{
									OFFSET -27.503529 0.000000 0.000000
									CHANNELS 3 Zrotation Yrotation Xrotation
									End Site #name: RightHand
									{
										OFFSET -21.306808 0.000000 0.000000
									}
								}
							}
						}
					}
				}
			}
		}
	}
	JOINT Hips_LeftUpLeg
	{
		OFFSET 0.000000 0.000000 0.000000
		CHANNELS 3 Zrotation Yrotation Xrotation
		JOINT LeftUpLeg
		{
			OFFSET 6.857700 -6.739601 0.312100
			CHANNELS 3 Zrotation Yrotation Xrotation
			JOINT LeftLeg
			{
				OFFSET -0.367590 -34.731552 -4.572400
				CHANNELS 3 Zrotation Yrotation Xrotation
				End Site #name: LeftFoot
				{
					OFFSET 0.367590 -34.656704 -6.067400
				}
			}
		}
	}
	JOINT Hips_RightUpLeg
	{
		OFFSET 0.000000 0.000000 0.000000
		CHANNELS 3 Zrotation Yrotation Xrotation
		JOINT RightUpLeg
		{
			OFFSET -6.876100 -6.733299 0.301000
			CHANNELS 3 Zrotation Yrotation Xrotation
			JOINT RightLeg
			{
				OFFSET 0.347353 -34.795158 -4.515900
				CHANNELS 3 Zrotation Yrotation Xrotation
				End Site #name: RightFoot
				{
					OFFSET -0.347353 -34.589367 -6.070300
				}
			}
		}
	}
}
MOTION
Frames: 16
Frame Time: 0.041667
109.481476 6.071107 34.523479 -99.659919 55.625246 -70.291079 -0.000000 -0.000000 -0.000000 24.712761 1.931470 -0.149849 6.749020 2.664407 -1.821494 0.000000 0.000000 0.000000 4.937036 3.084410 -0.361898 2.049340 -10.208071 14.738323 -0.007824 10.195157 -2.608897 -32.447292 8.537845 -15.668888 33.800396 -45.441260 -112.835858 3.555921 15.714442 1.723387 -1.768491 10.949612 1.172675 -70.081729 56.713231 -57.570149 82.714389 41.060469 -6.501547 173.574050 2.082939 -169.341553 -0.000000 -0.000000 -0.000000 60.906475 2.110076 58.420043 24.904114 -27.501478 -106.779039 -0.000000 0.000000 -0.000000 -22.111612 -12.492175 -148.184748 -5.486732 -6.899948 69.487043 
112.940582 6.179677 35.511837 -96.849853 56.187335 -68.232570 -0.000000 -0.000000 -0.000000 25.729099 2.169032 -0.004471 7.072909 2.863674 -2.281640 0.000000 0.000000 0.000000 5.129367 2.947747 -0.706053 2.777256 -8.770545 15.141008 0.013915 10.113680 -2.636180 -33.024310 7.492501 -15.305806 45.083894 -44.643168 -112.846371 2.589870 13.201571 1.409898 -1.773071 11.161446 1.018947 -70.386359 57.800535 -57.390964 81.795847 41.610696 -7.320181 173.554885 1.467157 -168.879355 -0.000000 -0.000000 -0.000000 61.389475 2.527806 59.058458 25.230524 -26.915908 -107.041294 -0.000000 0.000000 -0.000000 -23.647422 -12.420395 -147.872111 -6.281381 -7.246221 70.135111 
116.436989 6.118518 36.590584 -94.747595 56.929173 -67.052378 -0.000000 -0.000000 -0.000000 27.000674 2.577914 0.059967 7.479592 3.129964 -2.638548 0.000000 0.000000 0.000000 5.560382 2.881336 -1.072757 2.720184 -7.625106 15.806124 0.100051 10.091141 -2.693244 -33.018957 6.078425 -14.724655 54.326342 -44.856955 -111.412236 1.384742 11.176837 1.236491 -1.818805 11.423964 0.870183 -71.440496 58.757314 -58.217179 80.688147 41.713365 -8.143513 173.430944 -0.148955 -168.352145 -0.000000 -0.000000 -0.000000 62.059216 3.264527 59.693993 25.656596 -26.327396 -107.160521 -0.000000 0.000000 -0.000000 -25.259008 -12.231605 -147.949267 -6.996115 -7.472996 70.905226 
119.993713 5.860191 37.741875 -93.764103 57.900314 -67.039743 -0.000000 -0.000000 -0.000000 28.516468 3.025162 0.136821 7.922252 3.504820 -2.878903 0.000000 0.000000 0.000000 6.013793 2.916634 -1.329917 2.598349 -5.401543 18.596341 0.208560 10.146600 -2.814345 -32.723488 4.372555 -14.026666 60.638544 -45.727076 -108.278514 -0.084566 9.197537 1.195405 -1.943017 11.645463 0.650791 -73.945482 59.292448 -60.360422 79.416311 41.210781 -9.886054 173.051412 -1.584062 -167.615985 -0.000000 -0.000000 -0.000000 62.846344 4.119602 60.335506 26.192129 -25.742563 -107.157577 -0.000000 0.000000 -0.000000 -26.599894 -11.939780 -148.421432 -7.575633 -7.595632 71.721583 
123.616913 5.422398 38.944622 -93.687171 59.115706 -68.093975 -0.000000 -0.000000 -0.000000 30.105565 3.465716 0.457504 8.373306 3.955445 -3.019162 0.000000 0.000000 0.000000 6.450633 3.038342 -1.525912 2.999348 -3.193522 21.444244 0.310453 10.265936 -3.030934 -32.648061 2.517666 -13.229477 64.327897 -46.753351 -104.137084 -1.771051 7.348770 1.163591 -2.045558 11.854779 0.407940 -76.858684 59.817913 -62.864671 78.165880 40.403805 -12.232805 172.527410 -2.297631 -166.662728 -0.000000 -0.000000 -0.000000 64.115514 4.937472 60.803874 27.143379 -24.974296 -107.810461 -0.000000 0.000000 -0.000000 -27.516003 -11.589347 -149.088726 -7.984532 -7.589338 72.629229 
127.300224 4.838990 40.161983 -94.383095 60.401016 -69.864639 -0.000000 -0.000000 -0.000000 31.616838 3.878475 0.787629 8.806627 4.403564 -3.182466 0.000000 0.000000 0.000000 6.843989 3.226513 -1.855142 3.251535 -1.216610 23.995194 0.415682 10.457529 -3.395489 -32.919152 0.763528 -12.396546 66.414058 -48.275574 -99.846440 -2.247092 6.763193 0.767860 -2.161704 12.118286 0.208227 -80.363959 60.255758 -65.845592 76.744428 39.063921 -14.826410 172.179916 -1.762272 -165.702743 -0.000000 -0.000000 -0.000000 65.149065 5.172210 60.471766 28.321964 -24.344624 -108.606445 -0.000000 0.000000 -0.000000 -28.508630 -11.632837 -149.420715 -8.247892 -7.423395 73.634091 
131.042694 4.160646 41.371689 -96.360827 61.655386 -72.806580 -0.000000 -0.000000 -0.000000 33.090769 4.269127 1.081777 9.209538 4.858160 -3.369479 0.000000 0.000000 0.000000 7.207568 3.508047 -2.251101 3.522612 0.669191 26.383149 0.539138 10.712181 -3.836653 -33.537165 -0.821148 -11.470377 66.991316 -50.179364 -95.831745 -2.763968 6.516022 0.306622 -2.321636 12.419325 0.005411 -84.294348 60.655558 -69.244489 74.795957 37.157380 -17.325557 172.160004 -0.506891 -165.044664 -0.000000 -0.000000 -0.000000 66.076065 4.930336 59.490876 29.654474 -24.067789 -109.241859 -0.000000 0.000000 -0.000000 -29.784198 -12.315998 -149.827408 -8.682482 -7.139623 74.709713 
134.870163 3.486523 42.560650 -99.499299 62.755783 -76.784037 -0.000000 -0.000000 -0.000000 34.470433 4.605471 1.318271 9.581822 5.316872 -3.604567 0.000000 0.000000 0.000000 7.487962 3.857409 -2.722161 3.934364 2.645964 28.450009 0.674919 11.014489 -4.331028 -34.238061 -1.935574 -10.669791 66.960218 -51.985225 -93.864865 -3.293828 6.603672 -0.251741 -2.493898 12.760883 -0.210089 -88.318295 61.006884 -72.819464 72.656362 35.450172 -19.240125 172.370530 1.023229 -164.670441 -0.000000 -0.000000 -0.000000 66.855295 4.274329 58.263446 31.028162 -23.974065 -109.841263 -0.000000 0.000000 -0.000000 -31.123437 -13.096913 -150.417619 -9.053751 -6.701484 75.745023 
138.794571 2.825014 43.709869 -104.416494 63.733556 -82.302898 -0.000000 -0.000000 -0.000000 35.697994 4.842850 1.504391 9.894788 5.736865 -3.882454 0.000000 0.000000 0.000000 7.620661 4.231372 -3.239816 4.317981 4.646502 30.523325 0.790043 11.353033 -4.856694 -35.691755 -2.866880 -9.943291 64.877112 -53.333560 -91.643503 -3.755305 7.293299 -0.909100 -2.715922 13.172534 -0.459570 -92.625953 61.200302 -76.524018 71.090550 34.289456 -20.019994 172.727701 1.761748 -164.706219 -0.000000 -0.000000 -0.000000 67.661519 3.612613 56.588297 32.408996 -24.045822 -110.383413 -0.000000 0.000000 -0.000000 -32.223612 -13.868025 -151.612442 -9.132817 -6.160411 76.444187 
142.808899 2.183866 44.854404 -111.965638 64.314864 -89.965072 -0.000000 -0.000000 -0.000000 36.646035 4.891013 1.696825 10.133974 6.100696 -4.274824 0.000000 0.000000 0.000000 7.583130 4.577101 -3.742975 4.745590 6.490175 32.486311 0.915421 11.706439 -5.323821 -37.388799 -3.925817 -9.133090 62.444479 -54.722538 -90.348493 -4.148918 8.227387 -1.578047 -2.997382 13.595210 -0.699287 -96.784916 61.321401 -80.072261 70.172589 33.947426 -20.144865 172.972531 2.510553 -164.724657 -0.000000 -0.000000 -0.000000 68.367849 2.830091 54.291169 33.686366 -24.221480 -110.835674 -0.000000 0.000000 -0.000000 -32.828216 -14.735178 -153.313436 -8.943250 -5.569771 76.943193 
146.902267 1.538994 46.002903 -119.389693 64.515460 -97.223001 -0.000000 -0.000000 -0.000000 37.209680 4.835593 1.908687 10.268009 6.355058 -4.703417 0.000000 0.000000 0.000000 7.351006 4.901237 -4.191344 5.157747 8.072454 34.065990 1.018567 12.048641 -5.691799 -39.296060 -5.030652 -8.255180 58.841612 -56.447298 -87.804604 -4.354534 9.680671 -1.852564 -3.331523 14.002787 -0.930934 -100.953833 61.032091 -83.295135 70.111691 34.217192 -19.910596 173.024471 2.166442 -164.763413 -0.000000 -0.000000 -0.000000 68.788494 1.697920 51.138181 34.881481 -24.551366 -111.152977 -0.000000 0.000000 -0.000000 -32.715286 -15.501907 -155.448518 -8.645646 -4.989479 77.302721 
151.047897 0.879481 47.204742 -125.711258 64.133883 -103.240530 -0.000000 -0.000000 -0.000000 37.476889 4.615396 1.954079 10.256511 6.492791 -5.204413 0.000000 0.000000 0.000000 6.956144 5.205185 -4.546483 5.574825 9.539440 35.145530 1.106254 12.381046 -5.979829 -41.566445 -6.281271 -7.265664 53.819866 -58.266670 -83.966205 -4.424684 12.046878 -2.113327 -3.683856 14.394628 -1.004646 -104.899843 60.600301 -86.186757 70.576979 34.778980 -19.665886 172.967015 1.658350 -164.646660 -0.000000 -0.000000 -0.000000 69.207935 0.261807 47.549768 36.010328 -24.770544 -111.420428 -0.000000 0.000000 -0.000000 -31.964016 -16.040843 -158.167229 -8.142711 -4.419659 77.519589 
155.211441 0.203890 48.463699 -131.166904 63.370375 -108.267636 -0.000000 -0.000000 -0.000000 37.421697 4.330239 1.751065 10.132277 6.501930 -5.631656 0.000000 0.000000 0.000000 6.383195 5.481008 -4.788861 5.742664 10.891561 35.729836 1.169490 12.658695 -6.155156 -44.259427 -7.903990 -5.939354 44.012928 -59.680613 -76.304889 -4.301284 14.897530 -2.332234 -4.045630 14.771160 -0.878889 -108.925335 59.815239 -88.900204 71.354942 35.600260 -19.181725 172.781222 0.636936 -164.442678 -0.000000 -0.000000 -0.000000 69.798825 -0.567813 44.087525 37.359127 -24.862482 -111.783165 -0.000000 0.000000 -0.000000 -30.355829 -16.374298 -160.973915 -7.499771 -3.870689 77.702306 
159.362152 -0.461953 49.813732 -134.340348 62.993046 -111.263073 -0.000000 -0.000000 -0.000000 37.168284 3.908212 1.517850 9.897878 6.393064 -5.950444 0.000000 0.000000 0.000000 5.711443 5.731118 -4.904300 5.693053 12.190120 35.924384 1.184788 12.886556 -6.234082 -46.739394 -10.242748 -4.132475 33.560292 -60.402559 -70.693882 -4.194322 18.231540 -2.662587 -4.531984 15.183512 -0.663883 -113.122299 58.579035 -91.433950 72.237585 36.439223 -18.471454 172.415406 -0.926591 -164.139942 -0.000000 -0.000000 -0.000000 70.566606 -0.603718 40.968928 38.973488 -24.954633 -112.032200 -0.000000 0.000000 -0.000000 -28.190307 -16.665631 -163.505112 -6.802968 -3.377895 77.721580 
163.430359 -1.082880 51.243958 -136.338808 62.932135 -113.302558 -0.000000 -0.000000 -0.000000 36.449950 3.234144 1.085087 9.565224 6.231188 -6.161609 0.000000 0.000000 0.000000 4.928315 5.921012 -4.913749 5.157991 13.265965 35.704567 1.158774 13.039540 -6.175193 -49.412971 -12.708138 -2.071563 25.102871 -61.478002 -68.362206 -4.070239 22.922792 -3.094659 -5.233639 15.647808 -0.421170 -117.041503 57.150300 -93.521037 73.097552 37.365261 -17.775132 171.901023 -3.068363 -163.760156 -0.000000 -0.000000 -0.000000 71.427534 0.130414 38.272340 40.776049 -25.020462 -112.258691 -0.000000 0.000000 -0.000000 -25.999341 -17.028804 -165.413221 -6.247206 -2.992417 77.506109 
167.366425 -1.634990 52.763889 -137.338775 62.992660 -114.449066 -0.000000 -0.000000 -0.000000 35.188830 2.072832 -0.586432 9.051647 5.966722 -6.434517 0.000000 0.000000 0.000000 4.002910 6.113692 -4.901885 4.747711 14.264132 36.136070 1.028006 13.131666 -6.086909 -51.517592 -14.491704 -0.364350 20.378416 -62.525313 -69.258109 -3.936220 27.586521 -3.371014 -5.981744 16.152151 -0.316424 -120.415500 55.514640 -95.005667 74.068742 38.198779 -16.980020 171.293174 -5.613068 -163.356313 -0.000000 -0.000000 -0.000000 72.151840 1.566141 35.375741 42.523512 -25.518432 -112.159870 -0.000000 0.000000 -0.000000 -23.991735 -17.563893 -166.618385 -5.960951 -2.709907 76.867011 
